<svg preserveAspectRatio="none" width="100%" height="100%" overflow="visible" style="display: block;" viewBox="0 0 39 39" fill="none" xmlns="http://www.w3.org/2000/svg">
<g id="Component 7">
<path id="Union" d="M19.4997 8.89201H20.5153V10.9125H21.53V11.9233H23.5593V12.933H25.5993V7.88127H27.6286V6.8715H28.6433V8.89201H27.6286V12.933H30.6628V11.9233H31.6775V10.9125H32.6921V9.90275H33.7068V11.9233H32.6921V12.933H32.6931V13.9438H31.6784V14.9535H29.6482V15.9643H28.6335V28.0873H27.6189V29.0981H26.6042V30.1078H25.5896V31.1186H24.5739V32.1283H19.5007V31.1186H19.4997V32.1283H17.4704V31.1186H15.4411V30.1078H14.4265V29.0981H13.4109V28.0873H12.3962V27.0776H11.3816V25.0571H10.3669V16.974H9.35226V15.9643H8.33761V14.9535H7.32199V15.9643H6.30734V16.974H5.29269V14.9535H6.30734V13.9438H7.32199V12.933H12.3962V13.9438H13.4109V14.9535H14.4265V16.7406H15.3318V17.7514H16.3464V18.7612H14.4265V20.7817H17.4704V21.7924H18.4861V22.8022H14.4265V26.0668H15.4411V27.0776H16.4558V28.0873H20.5153V27.0776H22.5446V26.0668H23.5593V25.0571H24.5739V21.9877H23.5642V21.0151H22.5495V14.9535H21.53V13.9438H20.5153V12.933H18.4851V11.9233H15.4411V10.9125H13.4118V9.90275H8.33761V10.9125H7.32199V11.9233H6.30734V12.933H5.29269V10.9125H6.30734V9.90275H7.32199V8.89201H8.33761V7.88225H9.35226V6.8715H19.4997V8.89201ZM25.5886 16.974H25.5896V26.0668H24.5739V27.0776H23.5593V28.0873H21.53V29.0981H19.5007V30.1078H24.5739V29.0981H25.5896V28.0873H26.6042V27.0776H27.6189V14.9535H25.5886V16.974Z" fill="var(--fill-0, white)" fill-opacity="0.8"/>
</g>
</svg>
